<svg id="Capa_1" data-name="Capa 1" xmlns="http://www.w3.org/2000/svg" viewBox="0 0 302.35 62.12"><defs><style>.cls-1{fill:#242122;}.cls-2{fill:#f2f0f0;}</style></defs><title>logo fletes 31</title><path class="cls-1" d="M34.91,43.59,32.85,53.88H50.92l-1.5,7.23h-18L28.62,75.29H19.56l7.79-38.93H56.76l-1.5,7.23Z" transform="translate(-19.56 -26.14)"/><path class="cls-1" d="M62.88,36.36h9.06L65.6,68H85.12l-1.5,7.34H55.09Z" transform="translate(-19.56 -26.14)"/><path class="cls-1" d="M104,43.59,102.3,52h18.07l-1.39,7H100.86l-1.78,9h21.24l-1.5,7.23H88.68l7.78-38.93h29.42l-1.5,7.23Z" transform="translate(-19.56 -26.14)"/><path class="cls-1" d="M140.34,43.7H127.88l1.5-7.34H163.3l-1.5,7.34H149.4l-6.34,31.59h-9Z" transform="translate(-19.56 -26.14)"/><path class="cls-1" d="M175.64,43.59,174,52h18.07l-1.39,7H172.53l-1.78,9H192l-1.5,7.23H160.35l7.79-38.93h29.41l-1.5,7.23Z" transform="translate(-19.56 -26.14)"/><path class="cls-1" d="M195.61,71.62l3.67-7a22.07,22.07,0,0,0,12.84,4.06c4.95,0,8.06-1.73,8.06-4.56,0-6.23-19.29-2.89-19.29-15.3,0-8,7-13.17,17.79-13.17,5.23,0,10.07,1.16,13.46,3.33l-3.39,6.9a19,19,0,0,0-10.57-3c-5.22,0-8.28,2-8.28,4.78-.06,6.39,19.29,3.06,19.29,15,0,8.06-7.11,13.24-18,13.24C204.89,76,198.89,74.06,195.61,71.62Z" transform="translate(-19.56 -26.14)"/><circle class="cls-2" cx="246.49" cy="56.77" r="5.34"/><path class="cls-2" d="M303.11,41.47l-4,31.83a8.93,8.93,0,0,1,7.18,6.76h10.61l5-38.76Z" transform="translate(-19.56 -26.14)"/><path class="cls-2" d="M296.17,73l5.76-46.9H255.74l-1.89,15.4h30.8l-.46,3.85h-30.8l-1.92,15.4h30.79l-.46,3.85H251L249.12,80h8.31a9,9,0,0,1,17.46,0h14A8.92,8.92,0,0,1,296.17,73Z" transform="translate(-19.56 -26.14)"/><circle class="cls-2" cx="277.8" cy="56.77" r="5.12"/><rect class="cls-2" x="0.03" y="58.08" width="237.48" height="2.73"/></svg>